<svg xmlns="http://www.w3.org/2000/svg" xmlns:xlink="http://www.w3.org/1999/xlink" width="66.34" height="66.34" viewBox="0 0 66.34 66.34">
  <defs>
    <filter id="Ellipse_3" x="0" y="0" width="66.34" height="66.34" filterUnits="userSpaceOnUse">
      <feOffset dy="3" input="SourceAlpha"/>
      <feGaussianBlur stdDeviation="3" result="blur"/>
      <feFlood flood-opacity="0.161"/>
      <feComposite operator="in" in2="blur"/>
      <feComposite in="SourceGraphic"/>
    </filter>
  </defs>
  <g id="logo" transform="translate(-106.596 -104.17)">
    <g transform="matrix(1, 0, 0, 1, 106.6, 104.17)" filter="url(#Ellipse_3)">
      <circle id="Ellipse_3-2" data-name="Ellipse 3" cx="24.17" cy="24.17" r="24.17" transform="translate(9 6)" fill="#fff"/>
    </g>
    <path id="Path_9" data-name="Path 9" d="M480.527,381.322" transform="translate(-342.305 -254.34)" fill="#190c0d"/>
    <path id="Path_10" data-name="Path 10" d="M282.824,279.307a1.249,1.249,0,0,1-1.051,1.38h0a1.249,1.249,0,0,1-1.051-1.38V265.648a1.249,1.249,0,0,1,1.051-1.38h0a1.249,1.249,0,0,1,1.051,1.38Z" transform="translate(-154.888 -144.544)" fill="#ea5e28"/>
    <path id="Path_11" data-name="Path 11" d="M298.555,292.7a1.157,1.157,0,0,1-.394,1.576h0a1.157,1.157,0,0,1-1.491-.646l-13.986-28.334a1.157,1.157,0,0,1,.394-1.576h0a1.157,1.157,0,0,1,1.491.646Z" transform="translate(-156.589 -143.937)" fill="#ea5e28"/>
    <path id="Path_12" data-name="Path 12" d="M512.636,513a1.137,1.137,0,0,1-1.1,1.167h0a1.137,1.137,0,0,1-1.1-1.167V499.084a1.137,1.137,0,0,1,1.1-1.167h0a1.137,1.137,0,0,1,1.1,1.167Z" transform="translate(-370.35 -363.707)" fill="#ea5e28"/>
    <path id="Path_13" data-name="Path 13" d="M517.913,282.72h-7.487v-2.082h7.487a6.125,6.125,0,0,0,0-12.25h-7.277v-2.082h7.277a8.208,8.208,0,1,1,0,16.414Z" transform="translate(-370.35 -146.455)" fill="#ea5e28"/>
    <path id="Path_14" data-name="Path 14" d="M368.612,416.734" transform="translate(-237.329 -287.557)" fill="#0d0c0c"/>
  </g>
</svg>
